<?xml version="1.0" encoding="UTF-8" standalone="no"?>
<svg
   width="107.16794pt"
   height="105.25764pt"
   viewBox="0 0 107.16794 105.25764"
   version="1.1"
   id="svg266"
   sodipodi:docname="logo_small.svg"
   inkscape:version="1.2.2 (732a01da63, 2022-12-09)"
   xmlns:inkscape="http://www.inkscape.org/namespaces/inkscape"
   xmlns:sodipodi="http://sodipodi.sourceforge.net/DTD/sodipodi-0.dtd"
   xmlns="http://www.w3.org/2000/svg"
   xmlns:svg="http://www.w3.org/2000/svg">
  <defs
     id="defs270" />
  <sodipodi:namedview
     id="namedview268"
     pagecolor="#ffffff"
     bordercolor="#000000"
     borderopacity="0.25"
     inkscape:showpageshadow="2"
     inkscape:pageopacity="0.0"
     inkscape:pagecheckerboard="0"
     inkscape:deskcolor="#d1d1d1"
     inkscape:document-units="pt"
     showgrid="false"
     inkscape:zoom="2.0228571"
     inkscape:cx="204.66102"
     inkscape:cy="126.80085"
     inkscape:window-width="1920"
     inkscape:window-height="1111"
     inkscape:window-x="-9"
     inkscape:window-y="-9"
     inkscape:window-maximized="1"
     inkscape:current-layer="svg266" />
  <g
     id="surface1"
     transform="translate(-5.6933925,-30.904394)">
    <path
       style="fill:#000000;fill-opacity:1;fill-rule:nonzero;stroke:#000000;stroke-width:0.99626;stroke-linecap:round;stroke-linejoin:round;stroke-miterlimit:10;stroke-opacity:1"
       d="M 53.636719,-110.31641 43.007812,-92.765625 44.847656,-121.5 Z m 0,0"
       transform="scale(1,-1)"
       id="path173" />
    <path
       style="fill:#000000;fill-opacity:1;fill-rule:nonzero;stroke:#000000;stroke-width:0.99626;stroke-linecap:round;stroke-linejoin:round;stroke-miterlimit:10;stroke-opacity:1"
       d="M 53.636719,-110.31641 44.847656,-121.5 66.96875,-100.69141 Z m 0,0"
       transform="scale(1,-1)"
       id="path175" />
    <path
       style="fill:#ffffff;fill-opacity:1;fill-rule:nonzero;stroke:#000000;stroke-width:0.99626;stroke-linecap:round;stroke-linejoin:round;stroke-miterlimit:10;stroke-opacity:1"
       d="m 36.417969,-89.359375 -30.226563,10.59375 36.816406,-14 z m 0,0"
       transform="scale(1,-1)"
       id="path177" />
    <path
       style="fill:#000000;fill-opacity:1;fill-rule:nonzero;stroke:#000000;stroke-width:0.99626;stroke-linecap:round;stroke-linejoin:round;stroke-miterlimit:10;stroke-opacity:1"
       d="m 36.417969,-89.359375 6.953125,20.90625 -37.179688,-10.3125 z m 0,0"
       transform="scale(1,-1)"
       id="path179" />
    <path
       style="fill:#000000;fill-opacity:1;fill-rule:nonzero;stroke:#000000;stroke-width:0.99626;stroke-linecap:round;stroke-linejoin:round;stroke-miterlimit:10;stroke-opacity:1"
       d="m 53.636719,-110.31641 -17.21875,20.957035 -21.148438,-27.023435 z m 0,0"
       transform="scale(1,-1)"
       id="path181" />
    <path
       style="fill:#ffffff;fill-opacity:1;fill-rule:nonzero;stroke:#000000;stroke-width:0.99626;stroke-linecap:round;stroke-linejoin:round;stroke-miterlimit:10;stroke-opacity:1"
       d="m 80.109375,-103.94922 15.621094,-4.82031 -12.824219,24.753905 z m 0,0"
       transform="scale(1,-1)"
       id="path183" />
    <path
       style="fill:#ffffff;fill-opacity:1;fill-rule:nonzero;stroke:#000000;stroke-width:0.99626;stroke-linecap:round;stroke-linejoin:round;stroke-miterlimit:10;stroke-opacity:1"
       d="m 62.738281,-97.253906 -34.007812,-27.957034 24.90625,14.89453 z m 0,0"
       transform="scale(1,-1)"
       id="path185" />
    <path
       style="fill:#ffffff;fill-opacity:1;fill-rule:nonzero;stroke:#000000;stroke-width:0.99626;stroke-linecap:round;stroke-linejoin:round;stroke-miterlimit:10;stroke-opacity:1"
       d="m 36.417969,-89.359375 -7.6875,-35.851565 34.007812,27.957034 z m 0,0"
       transform="scale(1,-1)"
       id="path187" />
    <path
       style="fill:#000000;fill-opacity:1;fill-rule:nonzero;stroke:#000000;stroke-width:0.99626;stroke-linecap:round;stroke-linejoin:round;stroke-miterlimit:10;stroke-opacity:1"
       d="m 43.371094,-68.453125 12.210937,0.261719 -8.777343,36.789062 z m 0,0"
       transform="scale(1,-1)"
       id="path189" />
    <path
       style="fill:#ffffff;fill-opacity:1;fill-rule:nonzero;stroke:#000000;stroke-width:0.99626;stroke-linecap:round;stroke-linejoin:round;stroke-miterlimit:10;stroke-opacity:1"
       d="m 55.582031,-68.191406 14.453125,4.898437 -23.230468,31.890625 z m 0,0"
       transform="scale(1,-1)"
       id="path191" />
    <path
       style="fill:#ffffff;fill-opacity:1;fill-rule:nonzero;stroke:#000000;stroke-width:0.99626;stroke-linecap:round;stroke-linejoin:round;stroke-miterlimit:10;stroke-opacity:1"
       d="m 36.417969,-89.359375 19.164062,21.167969 -44.40625,15.394531 z m 0,0"
       transform="scale(1,-1)"
       id="path193" />
    <path
       style="fill:#ffffff;fill-opacity:1;fill-rule:nonzero;stroke:#000000;stroke-width:0.99626;stroke-linecap:round;stroke-linejoin:round;stroke-miterlimit:10;stroke-opacity:1"
       d="m 62.738281,-97.253906 -7.15625,29.0625 -27.984375,-13.460938 z m 0,0"
       transform="scale(1,-1)"
       id="path195" />
    <path
       style="fill:#000000;fill-opacity:1;fill-rule:nonzero;stroke:#000000;stroke-width:0.99626;stroke-linecap:round;stroke-linejoin:round;stroke-miterlimit:10;stroke-opacity:1"
       d="m 62.738281,-97.253906 -35.140625,15.601562 8.820313,-7.707031 z m 0,0"
       transform="scale(1,-1)"
       id="path197" />
    <path
       style="fill:#000000;fill-opacity:1;fill-rule:nonzero;stroke:#000000;stroke-width:0.99626;stroke-linecap:round;stroke-linejoin:round;stroke-miterlimit:10;stroke-opacity:1"
       d="m 62.738281,-97.253906 -9.101562,-13.062504 18.859375,-25.34765 z m 0,0"
       transform="scale(1,-1)"
       id="path199" />
    <path
       style="fill:#ffffff;fill-opacity:1;fill-rule:nonzero;stroke:#000000;stroke-width:0.99626;stroke-linecap:round;stroke-linejoin:round;stroke-miterlimit:10;stroke-opacity:1"
       d="m 62.738281,-97.253906 9.757813,-38.410154 7.613281,31.71484 z m 0,0"
       transform="scale(1,-1)"
       id="path201" />
    <path
       style="fill:#ffffff;fill-opacity:1;fill-rule:nonzero;stroke:#000000;stroke-width:0.99626;stroke-linecap:round;stroke-linejoin:round;stroke-miterlimit:10;stroke-opacity:1"
       d="M 83.046875,-79.371094 103.875,-59.539062 70.035156,-63.292969 Z m 0,0"
       transform="scale(1,-1)"
       id="path203" />
    <path
       style="fill:#000000;fill-opacity:1;fill-rule:nonzero;stroke:#000000;stroke-width:0.99626;stroke-linecap:round;stroke-linejoin:round;stroke-miterlimit:10;stroke-opacity:1"
       d="m 83.046875,-79.371094 -0.140625,-4.644531 20.96875,24.476563 z m 0,0"
       transform="scale(1,-1)"
       id="path205" />
    <path
       style="fill:#ffffff;fill-opacity:1;fill-rule:nonzero;stroke:#000000;stroke-width:0.99626;stroke-linecap:round;stroke-linejoin:round;stroke-miterlimit:10;stroke-opacity:1"
       d="m 80.109375,-103.94922 32.253905,10.609376 -29.316405,13.96875 z m 0,0"
       transform="scale(1,-1)"
       id="path207" />
    <path
       style="fill:#000000;fill-opacity:1;fill-rule:nonzero;stroke:#000000;stroke-width:0.99626;stroke-linecap:round;stroke-linejoin:round;stroke-miterlimit:10;stroke-opacity:1"
       d="m 80.109375,-103.94922 21.109375,-3.15234 -38.480469,9.847654 z m 0,0"
       transform="scale(1,-1)"
       id="path209" />
    <path
       style="fill:#ffffff;fill-opacity:1;fill-rule:nonzero;stroke:#000000;stroke-width:0.99626;stroke-linecap:round;stroke-linejoin:round;stroke-miterlimit:10;stroke-opacity:1"
       d="m 62.738281,-97.253906 38.480469,-9.847654 -18.171875,27.730466 z m 0,0"
       transform="scale(1,-1)"
       id="path211" />
    <path
       style="fill:#ffffff;fill-opacity:1;fill-rule:nonzero;stroke:#000000;stroke-width:0.99626;stroke-linecap:round;stroke-linejoin:round;stroke-miterlimit:10;stroke-opacity:1"
       d="m 55.582031,-68.191406 27.464844,-11.179688 1.464844,39.132813 z m 0,0"
       transform="scale(1,-1)"
       id="path213" />
    <path
       style="fill:#000000;fill-opacity:1;fill-rule:nonzero;stroke:#000000;stroke-width:0.99626;stroke-linecap:round;stroke-linejoin:round;stroke-miterlimit:10;stroke-opacity:1"
       d="m 62.738281,-97.253906 16.714844,26.1875 -23.871094,2.875 z m 0,0"
       transform="scale(1,-1)"
       id="path215" />
    <path
       style="fill:#ffffff;fill-opacity:1;fill-rule:nonzero;stroke:#000000;stroke-width:0.99626;stroke-linecap:round;stroke-linejoin:round;stroke-miterlimit:10;stroke-opacity:1"
       d="m 62.738281,-97.253906 20.308594,17.882812 -3.59375,8.304688 z m 0,0"
       transform="scale(1,-1)"
       id="path217" />
    <path
       style="fill:#000000;fill-opacity:1;fill-rule:nonzero;stroke:#000000;stroke-width:0.99626;stroke-linecap:round;stroke-linejoin:round;stroke-miterlimit:10;stroke-opacity:1"
       d="M 53.636719,-110.31641 43.007812,-92.765625 44.847656,-121.5 Z m 0,0"
       transform="scale(1,-1)"
       id="path219" />
    <path
       style="fill:#000000;fill-opacity:1;fill-rule:nonzero;stroke:#000000;stroke-width:0.99626;stroke-linecap:round;stroke-linejoin:round;stroke-miterlimit:10;stroke-opacity:1"
       d="M 53.636719,-110.31641 44.847656,-121.5 66.96875,-100.69141 Z m 0,0"
       transform="scale(1,-1)"
       id="path221" />
    <path
       style="fill:#ffffff;fill-opacity:1;fill-rule:nonzero;stroke:#000000;stroke-width:0.99626;stroke-linecap:round;stroke-linejoin:round;stroke-miterlimit:10;stroke-opacity:1"
       d="m 36.417969,-89.359375 -30.226563,10.59375 36.816406,-14 z m 0,0"
       transform="scale(1,-1)"
       id="path223" />
    <path
       style="fill:#000000;fill-opacity:1;fill-rule:nonzero;stroke:#000000;stroke-width:0.99626;stroke-linecap:round;stroke-linejoin:round;stroke-miterlimit:10;stroke-opacity:1"
       d="m 36.417969,-89.359375 6.953125,20.90625 -37.179688,-10.3125 z m 0,0"
       transform="scale(1,-1)"
       id="path225" />
    <path
       style="fill:#000000;fill-opacity:1;fill-rule:nonzero;stroke:#000000;stroke-width:0.99626;stroke-linecap:round;stroke-linejoin:round;stroke-miterlimit:10;stroke-opacity:1"
       d="m 53.636719,-110.31641 -17.21875,20.957035 -21.148438,-27.023435 z m 0,0"
       transform="scale(1,-1)"
       id="path227" />
    <path
       style="fill:#ffffff;fill-opacity:1;fill-rule:nonzero;stroke:#000000;stroke-width:0.99626;stroke-linecap:round;stroke-linejoin:round;stroke-miterlimit:10;stroke-opacity:1"
       d="m 80.109375,-103.94922 15.621094,-4.82031 -12.824219,24.753905 z m 0,0"
       transform="scale(1,-1)"
       id="path229" />
    <path
       style="fill:#ffffff;fill-opacity:1;fill-rule:nonzero;stroke:#000000;stroke-width:0.99626;stroke-linecap:round;stroke-linejoin:round;stroke-miterlimit:10;stroke-opacity:1"
       d="m 62.738281,-97.253906 -34.007812,-27.957034 24.90625,14.89453 z m 0,0"
       transform="scale(1,-1)"
       id="path231" />
    <path
       style="fill:#ffffff;fill-opacity:1;fill-rule:nonzero;stroke:#000000;stroke-width:0.99626;stroke-linecap:round;stroke-linejoin:round;stroke-miterlimit:10;stroke-opacity:1"
       d="m 36.417969,-89.359375 -7.6875,-35.851565 34.007812,27.957034 z m 0,0"
       transform="scale(1,-1)"
       id="path233" />
    <path
       style="fill:#000000;fill-opacity:1;fill-rule:nonzero;stroke:#000000;stroke-width:0.99626;stroke-linecap:round;stroke-linejoin:round;stroke-miterlimit:10;stroke-opacity:1"
       d="m 43.371094,-68.453125 12.210937,0.261719 -8.777343,36.789062 z m 0,0"
       transform="scale(1,-1)"
       id="path235" />
    <path
       style="fill:#ffffff;fill-opacity:1;fill-rule:nonzero;stroke:#000000;stroke-width:0.99626;stroke-linecap:round;stroke-linejoin:round;stroke-miterlimit:10;stroke-opacity:1"
       d="m 55.582031,-68.191406 14.453125,4.898437 -23.230468,31.890625 z m 0,0"
       transform="scale(1,-1)"
       id="path237" />
    <path
       style="fill:#ffffff;fill-opacity:1;fill-rule:nonzero;stroke:#000000;stroke-width:0.99626;stroke-linecap:round;stroke-linejoin:round;stroke-miterlimit:10;stroke-opacity:1"
       d="m 36.417969,-89.359375 19.164062,21.167969 -44.40625,15.394531 z m 0,0"
       transform="scale(1,-1)"
       id="path239" />
    <path
       style="fill:#ffffff;fill-opacity:1;fill-rule:nonzero;stroke:#000000;stroke-width:0.99626;stroke-linecap:round;stroke-linejoin:round;stroke-miterlimit:10;stroke-opacity:1"
       d="m 62.738281,-97.253906 -7.15625,29.0625 -27.984375,-13.460938 z m 0,0"
       transform="scale(1,-1)"
       id="path241" />
    <path
       style="fill:#000000;fill-opacity:1;fill-rule:nonzero;stroke:#000000;stroke-width:0.99626;stroke-linecap:round;stroke-linejoin:round;stroke-miterlimit:10;stroke-opacity:1"
       d="m 62.738281,-97.253906 -35.140625,15.601562 8.820313,-7.707031 z m 0,0"
       transform="scale(1,-1)"
       id="path243" />
    <path
       style="fill:#000000;fill-opacity:1;fill-rule:nonzero;stroke:#000000;stroke-width:0.99626;stroke-linecap:round;stroke-linejoin:round;stroke-miterlimit:10;stroke-opacity:1"
       d="m 62.738281,-97.253906 -9.101562,-13.062504 18.859375,-25.34765 z m 0,0"
       transform="scale(1,-1)"
       id="path245" />
    <path
       style="fill:#ffffff;fill-opacity:1;fill-rule:nonzero;stroke:#000000;stroke-width:0.99626;stroke-linecap:round;stroke-linejoin:round;stroke-miterlimit:10;stroke-opacity:1"
       d="m 62.738281,-97.253906 9.757813,-38.410154 7.613281,31.71484 z m 0,0"
       transform="scale(1,-1)"
       id="path247" />
    <path
       style="fill:#ffffff;fill-opacity:1;fill-rule:nonzero;stroke:#000000;stroke-width:0.99626;stroke-linecap:round;stroke-linejoin:round;stroke-miterlimit:10;stroke-opacity:1"
       d="M 83.046875,-79.371094 103.875,-59.539062 70.035156,-63.292969 Z m 0,0"
       transform="scale(1,-1)"
       id="path249" />
    <path
       style="fill:#000000;fill-opacity:1;fill-rule:nonzero;stroke:#000000;stroke-width:0.99626;stroke-linecap:round;stroke-linejoin:round;stroke-miterlimit:10;stroke-opacity:1"
       d="m 83.046875,-79.371094 -0.140625,-4.644531 20.96875,24.476563 z m 0,0"
       transform="scale(1,-1)"
       id="path251" />
    <path
       style="fill:#ffffff;fill-opacity:1;fill-rule:nonzero;stroke:#000000;stroke-width:0.99626;stroke-linecap:round;stroke-linejoin:round;stroke-miterlimit:10;stroke-opacity:1"
       d="m 80.109375,-103.94922 32.253905,10.609376 -29.316405,13.96875 z m 0,0"
       transform="scale(1,-1)"
       id="path253" />
    <path
       style="fill:#000000;fill-opacity:1;fill-rule:nonzero;stroke:#000000;stroke-width:0.99626;stroke-linecap:round;stroke-linejoin:round;stroke-miterlimit:10;stroke-opacity:1"
       d="m 80.109375,-103.94922 21.109375,-3.15234 -38.480469,9.847654 z m 0,0"
       transform="scale(1,-1)"
       id="path255" />
    <path
       style="fill:#ffffff;fill-opacity:1;fill-rule:nonzero;stroke:#000000;stroke-width:0.99626;stroke-linecap:round;stroke-linejoin:round;stroke-miterlimit:10;stroke-opacity:1"
       d="m 62.738281,-97.253906 38.480469,-9.847654 -18.171875,27.730466 z m 0,0"
       transform="scale(1,-1)"
       id="path257" />
    <path
       style="fill:#ffffff;fill-opacity:1;fill-rule:nonzero;stroke:#000000;stroke-width:0.99626;stroke-linecap:round;stroke-linejoin:round;stroke-miterlimit:10;stroke-opacity:1"
       d="m 55.582031,-68.191406 27.464844,-11.179688 1.464844,39.132813 z m 0,0"
       transform="scale(1,-1)"
       id="path259" />
    <path
       style="fill:#000000;fill-opacity:1;fill-rule:nonzero;stroke:#000000;stroke-width:0.99626;stroke-linecap:round;stroke-linejoin:round;stroke-miterlimit:10;stroke-opacity:1"
       d="m 62.738281,-97.253906 16.714844,26.1875 -23.871094,2.875 z m 0,0"
       transform="scale(1,-1)"
       id="path261" />
    <path
       style="fill:#ffffff;fill-opacity:1;fill-rule:nonzero;stroke:#000000;stroke-width:0.99626;stroke-linecap:round;stroke-linejoin:round;stroke-miterlimit:10;stroke-opacity:1"
       d="m 62.738281,-97.253906 20.308594,17.882812 -3.59375,8.304688 z m 0,0"
       transform="scale(1,-1)"
       id="path263" />
  </g>
</svg>
